<mxfile host="app.diagrams.net" agent="Mozilla/5.0 (Windows NT 10.0; Win64; x64) AppleWebKit/537.36 (KHTML, like Gecko) Chrome/136.0.0.0 Safari/537.36 Edg/136.0.0.0" version="27.1.4">
  <diagram name="Seite-1" id="upJZjHvNUz3xMS7-7bfP">
    <mxGraphModel dx="1344" dy="800" grid="1" gridSize="10" guides="1" tooltips="1" connect="1" arrows="1" fold="1" page="1" pageScale="1" pageWidth="827" pageHeight="1169" math="0" shadow="0">
      <root>
        <mxCell id="0" />
        <mxCell id="1" parent="0" />
        <mxCell id="s1dfM0Qethzy_j3g58PS-5" style="edgeStyle=orthogonalEdgeStyle;rounded=0;orthogonalLoop=1;jettySize=auto;html=1;entryX=0.5;entryY=0;entryDx=0;entryDy=0;" edge="1" parent="1" source="s1dfM0Qethzy_j3g58PS-1">
          <mxGeometry relative="1" as="geometry">
            <mxPoint x="400" y="230" as="targetPoint" />
          </mxGeometry>
        </mxCell>
        <mxCell id="s1dfM0Qethzy_j3g58PS-1" value="Zahl eingeben" style="rounded=0;whiteSpace=wrap;html=1;" vertex="1" parent="1">
          <mxGeometry x="340" y="120" width="120" height="60" as="geometry" />
        </mxCell>
        <mxCell id="s1dfM0Qethzy_j3g58PS-3" style="edgeStyle=orthogonalEdgeStyle;rounded=0;orthogonalLoop=1;jettySize=auto;html=1;exitX=0.5;exitY=1;exitDx=0;exitDy=0;entryX=0.5;entryY=0;entryDx=0;entryDy=0;" edge="1" parent="1" source="s1dfM0Qethzy_j3g58PS-2" target="s1dfM0Qethzy_j3g58PS-1">
          <mxGeometry relative="1" as="geometry" />
        </mxCell>
        <mxCell id="s1dfM0Qethzy_j3g58PS-2" value="" style="ellipse;whiteSpace=wrap;html=1;aspect=fixed;" vertex="1" parent="1">
          <mxGeometry x="380" y="40" width="40" height="40" as="geometry" />
        </mxCell>
        <mxCell id="s1dfM0Qethzy_j3g58PS-7" style="edgeStyle=orthogonalEdgeStyle;rounded=0;orthogonalLoop=1;jettySize=auto;html=1;" edge="1" parent="1" source="s1dfM0Qethzy_j3g58PS-6">
          <mxGeometry relative="1" as="geometry">
            <mxPoint x="540" y="270" as="targetPoint" />
          </mxGeometry>
        </mxCell>
        <mxCell id="s1dfM0Qethzy_j3g58PS-10" value="JA" style="edgeLabel;html=1;align=center;verticalAlign=middle;resizable=0;points=[];" vertex="1" connectable="0" parent="s1dfM0Qethzy_j3g58PS-7">
          <mxGeometry x="-0.0249" relative="1" as="geometry">
            <mxPoint as="offset" />
          </mxGeometry>
        </mxCell>
        <mxCell id="s1dfM0Qethzy_j3g58PS-11" style="edgeStyle=orthogonalEdgeStyle;rounded=0;orthogonalLoop=1;jettySize=auto;html=1;exitX=0.5;exitY=1;exitDx=0;exitDy=0;" edge="1" parent="1" source="s1dfM0Qethzy_j3g58PS-6" target="s1dfM0Qethzy_j3g58PS-8">
          <mxGeometry relative="1" as="geometry" />
        </mxCell>
        <mxCell id="s1dfM0Qethzy_j3g58PS-12" value="Nein" style="edgeLabel;html=1;align=center;verticalAlign=middle;resizable=0;points=[];" vertex="1" connectable="0" parent="s1dfM0Qethzy_j3g58PS-11">
          <mxGeometry x="0.1" y="4" relative="1" as="geometry">
            <mxPoint x="-4" y="-3" as="offset" />
          </mxGeometry>
        </mxCell>
        <mxCell id="s1dfM0Qethzy_j3g58PS-6" value="Zahl &amp;gt; 0" style="rhombus;whiteSpace=wrap;html=1;" vertex="1" parent="1">
          <mxGeometry x="360" y="230" width="80" height="80" as="geometry" />
        </mxCell>
        <mxCell id="s1dfM0Qethzy_j3g58PS-15" style="edgeStyle=orthogonalEdgeStyle;rounded=0;orthogonalLoop=1;jettySize=auto;html=1;exitX=1;exitY=0.5;exitDx=0;exitDy=0;" edge="1" parent="1" source="s1dfM0Qethzy_j3g58PS-8" target="s1dfM0Qethzy_j3g58PS-14">
          <mxGeometry relative="1" as="geometry" />
        </mxCell>
        <mxCell id="s1dfM0Qethzy_j3g58PS-16" value="JA" style="edgeLabel;html=1;align=center;verticalAlign=middle;resizable=0;points=[];" vertex="1" connectable="0" parent="s1dfM0Qethzy_j3g58PS-15">
          <mxGeometry x="0.12" relative="1" as="geometry">
            <mxPoint as="offset" />
          </mxGeometry>
        </mxCell>
        <mxCell id="s1dfM0Qethzy_j3g58PS-20" style="edgeStyle=orthogonalEdgeStyle;rounded=0;orthogonalLoop=1;jettySize=auto;html=1;exitX=0.5;exitY=1;exitDx=0;exitDy=0;" edge="1" parent="1" source="s1dfM0Qethzy_j3g58PS-8">
          <mxGeometry relative="1" as="geometry">
            <mxPoint x="400" y="530" as="targetPoint" />
          </mxGeometry>
        </mxCell>
        <mxCell id="s1dfM0Qethzy_j3g58PS-21" value="Nein" style="edgeLabel;html=1;align=center;verticalAlign=middle;resizable=0;points=[];" vertex="1" connectable="0" parent="s1dfM0Qethzy_j3g58PS-20">
          <mxGeometry x="0.2834" y="1" relative="1" as="geometry">
            <mxPoint x="-1" y="-14" as="offset" />
          </mxGeometry>
        </mxCell>
        <mxCell id="s1dfM0Qethzy_j3g58PS-8" value="Zahl &amp;lt; 0" style="rhombus;whiteSpace=wrap;html=1;" vertex="1" parent="1">
          <mxGeometry x="360" y="370" width="80" height="80" as="geometry" />
        </mxCell>
        <mxCell id="s1dfM0Qethzy_j3g58PS-28" style="edgeStyle=orthogonalEdgeStyle;rounded=0;orthogonalLoop=1;jettySize=auto;html=1;exitX=1;exitY=0.5;exitDx=0;exitDy=0;entryX=1;entryY=0.5;entryDx=0;entryDy=0;" edge="1" parent="1" source="s1dfM0Qethzy_j3g58PS-9" target="s1dfM0Qethzy_j3g58PS-23">
          <mxGeometry relative="1" as="geometry" />
        </mxCell>
        <mxCell id="s1dfM0Qethzy_j3g58PS-9" value="Output: Zahl ist positiv" style="rounded=0;whiteSpace=wrap;html=1;" vertex="1" parent="1">
          <mxGeometry x="540" y="240" width="120" height="60" as="geometry" />
        </mxCell>
        <mxCell id="s1dfM0Qethzy_j3g58PS-29" style="edgeStyle=orthogonalEdgeStyle;rounded=0;orthogonalLoop=1;jettySize=auto;html=1;exitX=1;exitY=0.5;exitDx=0;exitDy=0;" edge="1" parent="1" source="s1dfM0Qethzy_j3g58PS-14">
          <mxGeometry relative="1" as="geometry">
            <mxPoint x="680" y="410" as="targetPoint" />
          </mxGeometry>
        </mxCell>
        <mxCell id="s1dfM0Qethzy_j3g58PS-14" value="Output: Zahl ist positiv" style="rounded=0;whiteSpace=wrap;html=1;" vertex="1" parent="1">
          <mxGeometry x="540" y="380" width="120" height="60" as="geometry" />
        </mxCell>
        <mxCell id="s1dfM0Qethzy_j3g58PS-26" value="" style="edgeStyle=orthogonalEdgeStyle;rounded=0;orthogonalLoop=1;jettySize=auto;html=1;" edge="1" parent="1" source="s1dfM0Qethzy_j3g58PS-22" target="s1dfM0Qethzy_j3g58PS-23">
          <mxGeometry relative="1" as="geometry" />
        </mxCell>
        <mxCell id="s1dfM0Qethzy_j3g58PS-22" value="Output: Zahl ist Null" style="rounded=0;whiteSpace=wrap;html=1;" vertex="1" parent="1">
          <mxGeometry x="340" y="530" width="120" height="60" as="geometry" />
        </mxCell>
        <mxCell id="s1dfM0Qethzy_j3g58PS-23" value="" style="ellipse;whiteSpace=wrap;html=1;aspect=fixed;" vertex="1" parent="1">
          <mxGeometry x="380" y="645" width="40" height="40" as="geometry" />
        </mxCell>
        <mxCell id="s1dfM0Qethzy_j3g58PS-27" value="" style="shape=umlDestroy;html=1;" vertex="1" parent="1">
          <mxGeometry x="385" y="650" width="30" height="30" as="geometry" />
        </mxCell>
      </root>
    </mxGraphModel>
  </diagram>
</mxfile>
